<svg xmlns="http://www.w3.org/2000/svg" xmlns:xlink="http://www.w3.org/1999/xlink" width="21" zoomAndPan="magnify" viewBox="0 0 375 374.999991" height="21" preserveAspectRatio="xMidYMid meet" version="1.0"><defs><clipPath id="db4c381936"><path d="M 4.445312 4.445312 L 370.445312 4.445312 L 370.445312 370.445312 L 4.445312 370.445312 Z M 4.445312 4.445312 " clip-rule="nonzero"/></clipPath></defs><g clip-path="url(#db4c381936)"><path fill="#ffffff" d="M 187.5 4.445312 C 86.566406 4.445312 4.445312 86.566406 4.445312 187.5 C 4.445312 288.433594 86.566406 370.550781 187.5 370.550781 C 288.433594 370.550781 370.550781 288.433594 370.550781 187.5 C 370.550781 86.566406 288.429688 4.445312 187.5 4.445312 Z M 283.121094 190.0625 L 221.261719 275.246094 C 217.898438 279.886719 212.929688 282.933594 207.265625 283.828125 C 206.136719 284.015625 204.996094 284.101562 203.863281 284.101562 C 199.375 284.101562 195.007812 282.6875 191.308594 279.996094 C 186.675781 276.632812 183.621094 271.671875 182.726562 266.011719 C 181.824219 260.351562 183.1875 254.679688 186.558594 250.042969 L 216.390625 208.953125 L 89.164062 208.953125 C 77.328125 208.953125 67.710938 199.332031 67.710938 187.5 C 67.710938 175.667969 77.328125 166.050781 89.164062 166.050781 L 216.390625 166.050781 L 186.554688 124.96875 C 183.183594 120.328125 181.820312 114.660156 182.722656 108.996094 C 183.617188 103.335938 186.675781 98.375 191.304688 95.003906 C 195.945312 91.640625 201.65625 90.253906 207.265625 91.179688 C 212.925781 92.074219 217.898438 95.121094 221.261719 99.761719 L 283.121094 184.945312 C 284.226562 186.480469 284.226562 188.539062 283.113281 190.070312 Z M 283.121094 190.0625 " fill-opacity="1" fill-rule="nonzero"/></g></svg>